<?xml version="1.0" encoding="utf-8"?>
<!-- Generator: Adobe Illustrator 18.0.0, SVG Export Plug-In . SVG Version: 6.00 Build 0)  -->
<!DOCTYPE svg PUBLIC "-//W3C//DTD SVG 1.1//EN" "http://www.w3.org/Graphics/SVG/1.1/DTD/svg11.dtd">
<svg version="1.1" id="图层_1" xmlns="http://www.w3.org/2000/svg" xmlns:xlink="http://www.w3.org/1999/xlink" x="0px" y="0px"
	 viewBox="0 0 15 15" enable-background="new 0 0 15 15" xml:space="preserve">
<path fill-rule="evenodd" clip-rule="evenodd" fill="#555555" d="M14.9,3H0.1c-0.2,0,0-0.5,0-0.8S-0.1,2,0.1,2h4c0-1,1-2,2-2h3
	c1,0,2,1,2,2h4c0.2,0,0,0,0,0.3S15.1,3,14.9,3z M9,1H6C5.4,1,5,1.4,5,2H10C10,1.4,9.6,1,9,1z M4,11V7c0-0.5,1-0.5,1,0v4
	C5,11.5,4,11.5,4,11z M7,12V6c0-0.4,1-0.4,1,0v6C8,12.4,7,12.4,7,12z M10,11V7c0-0.5,1-0.5,1,0v4c0,0.2-0.7,0.3-0.9,0.3
	S10,11.2,10,11z M3.1,13c0,0.8,0.2,1,1,1H11c0.8,0,1-0.2,1-1V4h1v9c0,1.2-0.7,2-2,2H4c-1.2,0-2-0.8-2-2V4h1V13z"/>
</svg>
