<?xml version="1.0" encoding="utf-8"?>
<!-- Generator: Adobe Illustrator 18.0.0, SVG Export Plug-In . SVG Version: 6.00 Build 0)  -->
<!DOCTYPE svg PUBLIC "-//W3C//DTD SVG 1.1//EN" "http://www.w3.org/Graphics/SVG/1.1/DTD/svg11.dtd">
<svg version="1.1" id="图层_1" xmlns="http://www.w3.org/2000/svg" xmlns:xlink="http://www.w3.org/1999/xlink" x="0px" y="0px"
	 viewBox="0 0 15 15" enable-background="new 0 0 15 15" xml:space="preserve">
<path fill-rule="evenodd" clip-rule="evenodd" fill="#555555" d="M7.5,15C3.4,15,0,11.6,0,7.5S3.4,0,7.5,0C11.6,0,15,3.4,15,7.5
	S11.6,15,7.5,15z M1,7.5c0,1.5,0.5,2.8,1.3,3.9c0,0,0.2,0.2,0.4,0.4c4.1-4.1,5-5.1,8.9-9.2c-0.2-0.3-0.5-0.5-0.5-0.5
	C10.1,1.4,8.9,1,7.5,1C3.9,1,1,3.9,1,7.5z M12.7,3.6c0,0-0.2-0.2-0.5-0.4c-4.6,5.1-4.5,4.9-8.8,9.2c0.2,0.3,0.4,0.4,0.4,0.4
	c1,0.7,2.3,1.2,3.7,1.2c3.6,0,6.5-2.9,6.5-6.5C14,6,13.5,4.7,12.7,3.6z"/>
</svg>
