<?xml version="1.0" encoding="utf-8"?>
<!-- Generator: Adobe Illustrator 18.0.0, SVG Export Plug-In . SVG Version: 6.00 Build 0)  -->
<!DOCTYPE svg PUBLIC "-//W3C//DTD SVG 1.1//EN" "http://www.w3.org/Graphics/SVG/1.1/DTD/svg11.dtd">
<svg version="1.1" id="图层_1" xmlns="http://www.w3.org/2000/svg" xmlns:xlink="http://www.w3.org/1999/xlink" x="0px" y="0px"
	 viewBox="0 0 15 15" enable-background="new 0 0 15 15" xml:space="preserve">
<path fill-rule="evenodd" clip-rule="evenodd" fill="#555555" d="M11.5,15h-8c-1.1,0-2-0.9-2-2V8.9c0-1.1,0.9-1.9,2-1.9V4
	c0-2.3,1.8-4,4-4c2.2,0,4,1.8,4,4.1c0,0.5-1,0.4-1-0.1c0-1.9-1.2-3-3-3c-1.8,0-3,1.1-3,3v3h6h1c1.1,0,2,0.7,2,1.9V13
	C13.5,14.1,12.6,15,11.5,15z M12.5,9c0-0.8-0.3-1-1-1h-8c-0.7,0-1,0.2-1,1v4c0,0.8,0.3,1,1,1h8c0.7,0,1-0.2,1-1V9z M6.5,12v-2h2v2
	H6.5z"/>
</svg>
